<svg xmlns="http://www.w3.org/2000/svg" version="1.1" xmlns:xlink="http://www.w3.org/1999/xlink" xmlns:svgjs="http://svgjs.dev/svgjs" width="128" height="128" viewBox="0 0 128 128"><g transform="matrix(0.5364583333333334,0,0,0.5364583333333334,29.596883468834683,12.333870967741937)"><svg viewBox="0 0 103 155" data-background-color="#ffffff" preserveAspectRatio="xMidYMid meet" height="192" width="128" xmlns="http://www.w3.org/2000/svg" xmlns:xlink="http://www.w3.org/1999/xlink"><g id="tight-bounds" transform="matrix(1,0,0,1,0.10467479674795754,0.25)"><svg viewBox="0 0 102.79065040650408 154.5" height="154.5" width="102.79065040650408"><g><svg viewBox="0 0 102.79065040650408 154.5" height="154.5" width="102.79065040650408"><g><svg viewBox="0 0 102.79065040650408 154.5" height="154.5" width="102.79065040650408"><g id="textblocktransform"><svg viewBox="0 0 102.79065040650408 154.5" height="154.5" width="102.79065040650408" id="textblock"><g><svg viewBox="0 0 102.79065040650408 154.5" height="154.5" width="102.79065040650408"><g transform="matrix(1,0,0,1,0,0)"><svg width="102.79065040650408" viewBox="5.4 -36.3 24.549999999999997 36.9" height="154.5" data-palette-color="#171cbe"><path d="M5.4 0L5.4 0 5.4-35.7Q9.3-36.3 17.35-36.3L17.35-36.3Q22.75-36.3 25.93-33.33 29.1-30.35 29.1-26.25L29.1-26.25Q29.1-21.2 25.1-18.35L25.1-18.35Q29.95-15.7 29.95-9.95L29.95-9.95Q29.95-5.6 26.83-2.5 23.7 0.6 17.4 0.6L17.4 0.6Q9.9 0.6 5.4 0ZM11.1-31.6L11.1-20.15 20.05-20.15Q20.6-20.6 20.93-20.85 21.25-21.1 21.65-21.58 22.05-22.05 22.35-22.6L22.35-22.6Q23.1-24 23.1-25.6L23.1-25.6Q23.1-31.8 15.85-31.8L15.85-31.8Q14.3-31.8 11.1-31.6L11.1-31.6ZM11.1-16.1L11.1-4.2Q15.2-3.9 16.7-3.9L16.7-3.9Q20.7-3.9 22.33-5.5 23.95-7.1 23.95-10.08 23.95-13.05 22.28-14.58 20.6-16.1 16.55-16.1L16.55-16.1 11.1-16.1Z" opacity="1" transform="matrix(1,0,0,1,0,0)" fill="#171cbe" class="wordmark-text-0" data-fill-palette-color="primary" id="text-0"></path></svg></g></svg></g></svg></g></svg></g></svg></g><defs></defs></svg><rect width="102.79065040650408" height="154.5" fill="none" stroke="none" visibility="hidden"></rect></g></svg></g></svg>